<?xml version="1.0" encoding="UTF-8" standalone="no"?>
<svg
   xmlns:dc="http://purl.org/dc/elements/1.1/"
   xmlns:cc="http://creativecommons.org/ns#"
   xmlns:rdf="http://www.w3.org/1999/02/22-rdf-syntax-ns#"
   xmlns:svg="http://www.w3.org/2000/svg"
   xmlns="http://www.w3.org/2000/svg"
   id="svg4"
   version="1.1"
   viewBox="0 0 116.29625 116.29625"
   height="116.29625"
   width="116.29625"
   y="0px"
   x="0px">
  <metadata
     id="metadata10">
    <rdf:RDF>
      <cc:Work
         rdf:about="">
        <dc:format>image/svg+xml</dc:format>
        <dc:type
           rdf:resource="http://purl.org/dc/dcmitype/StillImage" />
        <dc:title></dc:title>
      </cc:Work>
    </rdf:RDF>
  </metadata>
  <defs
     id="defs8" />
  <path
     style="fill:#2f2655;fill-opacity:1"
     id="path2"
     d="m 60.741253,17.81971 a 3.108,3.108 0 0 1 6.216,0 3.108,3.108 0 0 1 -6.216,0 m -37.077,28.14 a 3.108,3.108 0 0 1 6.216,0 3.108,3.108 0 0 1 -6.216,0 m 74.153,0.145 a 3.108,3.108 0 0 1 6.215997,0 3.108,3.108 0 0 1 -6.215997,0 m -65.156,4.258 c 1.43,-0.635 2.076,-2.311 1.441,-3.744 l -1.379,-3.118 h 5.423 v 24.444 h -10.941 a 38.265,38.265 0 0 1 -1.239,-14.607 z m 22.685,0.601 v -7.205 h 12.914 c 0.667,0 4.71,0.771 4.71,3.794 0,2.51 -3.101,3.41 -5.651,3.41 z m -17.631,38.793 a 3.108,3.108 0 0 1 6.216,0 3.108,3.108 0 0 1 -6.216,0 m 46.051,0.145 a 3.108,3.108 0 0 1 6.216,0 3.108,3.108 0 0 1 -6.216,0 m 0.961,-7.048 c -1.531,-0.328 -3.037,0.646 -3.365,2.18 l -1.56,7.28 a 38.265,38.265 0 0 1 -31.911,-0.153 l -1.559,-7.28 c -0.328,-1.532 -1.834,-2.508 -3.364,-2.179 l -6.427,1.38 a 38.265,38.265 0 0 1 -3.323,-3.917 h 31.272 c 0.354,0 0.59,-0.064 0.59,-0.386 v -11.062 c 0,-0.322 -0.236,-0.386 -0.59,-0.386 h -9.146 v -7.012 h 9.892 c 0.903,0 4.828,0.258 6.083,5.275 0.393,1.543 1.256,6.562 1.846,8.169 0.588,1.802 2.982,5.402 5.533,5.402 h 16.146 a 38.265,38.265 0 0 1 -3.544,4.102 z m 17.364997,-29.207 a 38.265,38.265 0 0 1 0.081,6.643 h -3.925997 c -0.393,0 -0.551,0.258 -0.551,0.643 v 1.803 c 0,4.244 -2.393,5.167 -4.49,5.402 -1.997,0.225 -4.211,-0.836 -4.484,-2.058 -1.178,-6.626 -3.141,-8.041 -6.241,-10.486 3.847,-2.443 7.85,-6.047 7.85,-10.871 0,-5.209 -3.571,-8.49 -6.005,-10.099 -3.415,-2.251 -7.196,-2.702 -8.216,-2.702 h -40.603 a 38.265,38.265 0 0 1 21.408,-12.082 l 4.786,5.021 c 1.082,1.133 2.874,1.175 4.006,0.092 l 5.355,-5.122 a 38.265,38.265 0 0 1 26.196,18.657 l -3.666,8.28 c -0.633,1.433 0.013,3.109 1.442,3.744 z m 9.143,0.134 -0.125,-1.28 3.776,-3.522 c 0.768,-0.716 0.481,-2.157 -0.501,-2.523 l -4.827,-1.805 -0.378,-1.246 3.011,-4.182 c 0.614,-0.85 0.05,-2.207 -0.984,-2.377 l -5.09,-0.828 -0.612,-1.143 2.139,-4.695 c 0.438,-0.956 -0.376,-2.179 -1.428,-2.139 l -5.166,0.18 -0.816,-0.99 1.187,-5.032 c 0.24,-1.022 -0.797,-2.06 -1.819,-1.82 l -5.030997,1.186 -0.992,-0.816 0.181,-5.166 c 0.04,-1.046 -1.184,-1.863 -2.138,-1.429 l -4.694,2.14 -1.143,-0.613 -0.83,-5.091 c -0.168,-1.0319997 -1.526,-1.5959997 -2.376,-0.9839997 l -4.185,3.0109997 -1.244,-0.377 -1.805,-4.8279997 c -0.366,-0.984 -1.808,-1.267 -2.522,-0.503 l -3.522,3.7789997 -1.28,-0.125 -2.72,-4.3949997 c -0.55,-0.89 -2.023,-0.89 -2.571,0 l -2.72,4.3949997 -1.281,0.125 -3.523,-3.7789997 c -0.714,-0.764 -2.156,-0.481 -2.522,0.503 l -1.805,4.8279997 -1.245,0.377 -4.184,-3.0109997 c -0.85,-0.614 -2.209,-0.048 -2.377,0.9839997 l -0.83,5.091 -1.143,0.613 -4.694,-2.14 c -0.954,-0.436 -2.178,0.383 -2.138,1.429 l 0.18,5.166 -0.992,0.816 -5.031,-1.186 c -1.022,-0.238 -2.06,0.798 -1.82,1.82 l 1.185,5.032 -0.814,0.99 -5.166,-0.18 c -1.042,-0.03 -1.863,1.183 -1.429,2.139 l 2.14,4.695 -0.613,1.143 -5.09,0.828 c -1.034,0.168 -1.594,1.527 -0.984,2.377 l 3.011,4.182 -0.378,1.246 -4.828,1.805 c -0.98,0.366 -1.267,1.807 -0.501,2.523 l 3.777,3.522 -0.125,1.28 -4.394,2.72 c -0.89,0.55 -0.89,2.023 0,2.571 l 4.394,2.72 0.125,1.28 -3.777,3.523 c -0.766,0.714 -0.479,2.154 0.501,2.522 l 4.828,1.805 0.378,1.246 -3.011,4.183 c -0.612,0.852 -0.049,2.21 0.985,2.376 l 5.089,0.828 0.613,1.145 -2.14,4.693 c -0.436,0.954 0.387,2.181 1.429,2.139 l 5.164,-0.181 0.816,0.992 -1.185,5.033 c -0.24,1.019998 0.798,2.055998 1.82,1.815998 l 5.031,-1.184998 0.992,0.813998 -0.18,5.167 c -0.04,1.046002 1.184,1.864002 2.138,1.428002 l 4.694,-2.139002 1.143,0.613 0.83,5.088002 c 0.168,1.036 1.527,1.596 2.377,0.986 l 4.182,-3.013 1.246,0.379 1.805,4.826 c 0.366,0.98 1.808,1.269 2.522,0.501 l 3.523,-3.777 1.281,0.128 2.72,4.394 c 0.548,0.886 2.021,0.888 2.571,0 l 2.72,-4.394 1.28,-0.128 3.522,3.777 c 0.714,0.768 2.156,0.479 2.522,-0.501 l 1.805,-4.826 1.246,-0.379 4.183,3.013 c 0.85,0.61 2.208,0.048 2.376,-0.986 l 0.83,-5.088002 1.143,-0.613 4.694,2.139002 c 0.954,0.436 2.176,-0.38 2.138,-1.428002 l -0.18,-5.167 0.991,-0.813998 5.030997,1.184998 c 1.022,0.24 2.059,-0.796 1.819,-1.815998 l -1.185,-5.033 0.814,-0.992 5.166,0.181 c 1.042,0.042 1.866,-1.185 1.428,-2.139 l -2.139,-4.693 0.612,-1.145 5.09,-0.828 c 1.036,-0.166 1.598,-1.524 0.984,-2.376 l -3.011,-4.183 0.378,-1.246 4.827,-1.805 c 0.982,-0.368 1.269,-1.808 0.501,-2.522 l -3.776,-3.523 0.125,-1.28 4.394,-2.72 c 0.89,-0.548 0.891,-2.021 0.001,-2.571 z" />
  <path
     id="path12"
     d="m 9.872564,58.39184 c 0,-27.341979 20.011112,-50.6789757 48.36712,-54.6748189 -0.703533,-0.02436 -1.410439,-0.05083 -2.120716,-0.05083 C 24.298112,3.6661911 0,28.141117 0,58.023115 0,87.90619 24.531363,112.63006 56.353343,112.63006 c 0.712524,0 1.419431,-0.0254 2.125212,-0.0497 C 30.118051,108.58446 9.872564,85.734874 9.872564,58.39184 Z"
     style="fill:#f7941e;stroke-width:1.09083366" />
</svg>
