<?xml version="1.0" encoding="UTF-8" standalone="no"?>
<!-- Generator: Adobe Illustrator 15.0.0, SVG Export Plug-In . SVG Version: 6.00 Build 0)  -->

<svg
   xmlns:dc="http://purl.org/dc/elements/1.1/"
   xmlns:cc="http://creativecommons.org/ns#"
   xmlns:rdf="http://www.w3.org/1999/02/22-rdf-syntax-ns#"
   xmlns:svg="http://www.w3.org/2000/svg"
   xmlns="http://www.w3.org/2000/svg"
   xmlns:sodipodi="http://sodipodi.sourceforge.net/DTD/sodipodi-0.dtd"
   xmlns:inkscape="http://www.inkscape.org/namespaces/inkscape"
   version="1.1"
   id="Layer_1"
   x="0px"
   y="0px"
   width="150pt"
   height="150pt"
   viewBox="0 0 200 200"
   enable-background="new 0 0 612 792"
   xml:space="preserve"
   sodipodi:docname="Eclipse_Rust_RGB.svg"
   inkscape:version="0.92.3 (2405546, 2018-03-11)"
   inkscape:export-filename="/home/nico/Projects/itadinanta/corrosion/images/Eclipse_Rust_RGB_16.png"
   inkscape:export-xdpi="7.6799998"
   inkscape:export-ydpi="7.6799998"><metadata
   id="metadata68"><rdf:RDF><cc:Work
       rdf:about=""><dc:format>image/svg+xml</dc:format><dc:type
         rdf:resource="http://purl.org/dc/dcmitype/StillImage" /><dc:title></dc:title></cc:Work></rdf:RDF></metadata><defs
   id="defs66" /><sodipodi:namedview
   pagecolor="#ffffff"
   bordercolor="#666666"
   borderopacity="1"
   objecttolerance="10"
   gridtolerance="10"
   guidetolerance="10"
   inkscape:pageopacity="0"
   inkscape:pageshadow="2"
   inkscape:window-width="1914"
   inkscape:window-height="2046"
   id="namedview64"
   showgrid="false"
   inkscape:zoom="2.3838384"
   inkscape:cx="83.564632"
   inkscape:cy="-4.737622"
   inkscape:window-x="1920"
   inkscape:window-y="33"
   inkscape:window-maximized="0"
   inkscape:current-layer="layer2"
   inkscape:snap-global="false"
   units="pt" />














<g
   inkscape:groupmode="layer"
   id="layer1"
   inkscape:label="Layer 1"
   transform="translate(-170.29675,-285.94541)"><path
     style="stroke-width:1.5999862"
     inkscape:connector-curvature="0"
     id="path3"
     d="m 362.32779,384.07782 -7.03034,-4.35196 c -0.0592,-0.68479 -0.12641,-1.36799 -0.2,-2.04798 l 6.04155,-5.63516 c 0.61439,-0.57279 0.88959,-1.42079 0.72318,-2.24157 -0.1616,-0.82399 -0.73918,-1.50239 -1.52478,-1.79519 l -7.72314,-2.88797 c -0.19359,-0.66879 -0.39678,-1.3328 -0.6048,-1.99359 l 4.81758,-6.69114 c 0.4912,-0.68 0.59198,-1.56478 0.27198,-2.34078 -0.31997,-0.7728 -1.01919,-1.3264 -1.84637,-1.46239 l -8.14394,-1.32478 c -0.31678,-0.6176 -0.64638,-1.22561 -0.97919,-1.8288 l 3.42237,-7.51193 c 0.35041,-0.76479 0.2784,-1.65438 -0.1888,-2.34878 -0.46559,-0.69759 -1.2544,-1.10558 -2.09598,-1.07359 l -8.26552,0.288 c -0.42719,-0.5344 -0.86241,-1.06399 -1.3056,-1.58399 l 1.89919,-8.05112 c 0.19201,-0.81759 -0.0496,-1.6736 -0.64481,-2.26719 -0.59038,-0.592 -1.44797,-0.8368 -2.26556,-0.6448 l -8.04953,1.89758 c -0.5216,-0.44158 -1.05119,-0.87838 -1.5872,-1.30559 l 0.2896,-8.26553 c 0.032,-0.83678 -0.37599,-1.63198 -1.07359,-2.09597 -0.6992,-0.4672 -1.58397,-0.53759 -2.34717,-0.1904 l -7.51035,3.42397 c -0.60639,-0.3328 -1.21438,-0.66239 -1.82878,-0.98079 l -1.32799,-8.14553 c -0.1344,-0.82559 -0.688,-1.52638 -1.4624,-1.84639 -0.77279,-0.32159 -1.65917,-0.21759 -2.33917,0.272 l -6.69594,4.81756 c -0.6592,-0.2096 -1.3216,-0.41119 -1.99038,-0.60318 l -2.88798,-7.72475 c -0.29279,-0.78719 -0.97118,-1.36479 -1.79519,-1.52798 -0.82238,-0.1616 -1.66878,0.11201 -2.23997,0.72319 l -5.63516,6.04634 c -0.68,-0.0752 -1.36479,-0.14399 -2.04798,-0.19999 l -4.35196,-7.03193 c -0.43999,-0.71201 -1.21919,-1.1456 -2.05758,-1.1456 -0.8384,0 -1.61758,0.43359 -2.05599,1.1456 l -4.35195,7.03193 c -0.68481,0.0561 -1.3696,0.1248 -2.04959,0.19999 l -5.63675,-6.04634 c -0.5712,-0.61119 -1.41919,-0.88479 -2.23998,-0.72319 -0.824,0.16479 -1.5024,0.74079 -1.7952,1.52798 l -2.88796,7.72475 c -0.6688,0.19199 -1.3312,0.39519 -1.99199,0.60318 l -6.69435,-4.81756 c -0.68,-0.49119 -1.56638,-0.59519 -2.34078,-0.272 -0.77279,0.32001 -1.32798,1.0208 -1.46238,1.84639 l -1.328,8.14553 c -0.61439,0.3184 -1.22238,0.64639 -1.82877,0.98079 l -7.51034,-3.42397 c -0.76319,-0.34879 -1.65278,-0.2768 -2.34717,0.1904 -0.69759,0.46399 -1.10559,1.25919 -1.0736,2.09597 l 0.288,8.26553 c -0.5344,0.42721 -1.064,0.86401 -1.58719,1.30559 l -8.04952,-1.89758 c -0.81761,-0.19039 -1.6752,0.0528 -2.26719,0.6448 -0.5952,0.59359 -0.83678,1.4496 -0.64479,2.26719 l 1.89598,8.05112 c -0.44,0.5216 -0.87519,1.04959 -1.30239,1.58399 l -8.26553,-0.288 c -0.83359,-0.024 -1.63039,0.376 -2.09598,1.07359 -0.4672,0.6944 -0.53759,1.58399 -0.1904,2.34878 l 3.42397,7.51193 c -0.33279,0.60319 -0.66239,1.2112 -0.98079,1.8288 l -8.14393,1.32478 c -0.82719,0.1344 -1.52478,0.688 -1.84639,1.46239 -0.31999,0.776 -0.21598,1.66078 0.27201,2.34078 l 4.81755,6.69114 c -0.2096,0.66079 -0.41279,1.3248 -0.6048,1.99359 l -7.72472,2.88797 c -0.784,0.2928 -1.3616,0.9712 -1.52479,1.79519 -0.1632,0.82239 0.11036,1.66878 0.7232,2.24157 l 6.04313,5.63516 c -0.0752,0.67999 -0.14239,1.36478 -0.19998,2.04798 l -7.03035,4.35196 c -0.712,0.44001 -1.14558,1.21759 -1.14558,2.05759 0,0.83999 0.43358,1.61758 1.14558,2.05598 l 7.03035,4.35196 c 0.0576,0.68479 0.12478,1.36798 0.19998,2.04798 l -6.04313,5.63675 c -0.61281,0.5712 -0.8864,1.4192 -0.7232,2.23999 0.16319,0.82398 0.74079,1.50079 1.52479,1.79518 l 7.72472,2.88797 c 0.19201,0.66879 0.3952,1.33279 0.6048,1.99358 l -4.81755,6.69275 c -0.4896,0.6816 -0.5936,1.56638 -0.27201,2.33918 0.32161,0.77599 1.0208,1.32959 1.84799,1.46238 l 8.14233,1.3248 c 0.3184,0.61759 0.64479,1.22558 0.98079,1.83198 l -3.42397,7.50874 c -0.34879,0.7632 -0.2768,1.65117 0.1904,2.34876 0.46719,0.69921 1.26239,1.10721 2.09598,1.0736 l 8.26233,-0.2896 c 0.4304,0.53761 0.864,1.064 1.30559,1.58719 l -1.89598,8.05274 c -0.19199,0.81599 0.0496,1.66877 0.64479,2.26238 0.59039,0.59679 1.44958,0.8352 2.26719,0.64319 l 8.04952,-1.89599 c 0.52319,0.44481 1.05279,0.8768 1.58719,1.3024 l -0.288,8.26713 c -0.032,0.83678 0.37601,1.63037 1.0736,2.09758 0.69439,0.46559 1.58398,0.53599 2.34717,0.18719 l 7.51034,-3.42236 c 0.60479,0.33598 1.21279,0.6624 1.82877,0.98079 l 1.328,8.14073 c 0.1344,0.82878 0.68799,1.52958 1.46238,1.84798 0.7728,0.32159 1.66078,0.2176 2.34078,-0.2704 l 6.69115,-4.82076 c 0.6608,0.2096 1.32479,0.41441 1.99359,0.6064 l 2.88797,7.72153 c 0.2928,0.784 0.97119,1.36479 1.79518,1.52478 0.8224,0.16641 1.6688,-0.10882 2.23999,-0.72318 l 5.63674,-6.04316 c 0.68001,0.0785 1.36479,0.144 2.04959,0.20481 l 4.35196,7.03034 c 0.4384,0.70879 1.21758,1.14558 2.05598,1.14558 0.83839,0 1.6176,-0.43519 2.05759,-1.14558 l 4.35196,-7.03034 c 0.68479,-0.0608 1.36799,-0.1264 2.04797,-0.20481 l 5.63517,6.04316 c 0.57118,0.61439 1.41919,0.88959 2.23998,0.72318 0.82399,-0.1616 1.50239,-0.74078 1.79517,-1.52478 l 2.88798,-7.72153 c 0.6688,-0.19199 1.33279,-0.3968 1.99359,-0.6064 l 6.69274,4.82076 c 0.68,0.488 1.56638,0.59199 2.33919,0.2704 0.77438,-0.3184 1.32797,-1.02079 1.46238,-1.84798 l 1.328,-8.14073 c 0.61439,-0.31839 1.22238,-0.6496 1.82877,-0.98079 l 7.51034,3.42236 c 0.7632,0.3488 1.65119,0.2784 2.34717,-0.18719 0.69761,-0.46721 1.104,-1.25919 1.0736,-2.09758 l -0.288,-8.26713 c 0.5344,-0.4272 1.064,-0.85759 1.58559,-1.3024 l 8.04953,1.89599 c 0.8176,0.19201 1.67519,-0.0463 2.2656,-0.64319 0.59518,-0.59361 0.83678,-1.44639 0.64478,-2.26238 l -1.89598,-8.05274 c 0.44158,-0.52319 0.8768,-1.04958 1.30239,-1.58719 l 8.26553,0.2896 c 0.83358,0.0337 1.63037,-0.37439 2.09598,-1.0736 0.46719,-0.69759 0.53919,-1.58556 0.18879,-2.34876 l -3.42236,-7.50874 c 0.3344,-0.6064 0.66239,-1.21439 0.97919,-1.83198 l 8.14393,-1.3248 c 0.82878,-0.13279 1.52639,-0.68639 1.84638,-1.46238 0.31999,-0.7728 0.2192,-1.65758 -0.272,-2.33918 l -4.81755,-6.69275 c 0.20799,-0.66079 0.41119,-1.32479 0.6048,-1.99358 l 7.72313,-2.88797 c 0.78559,-0.29439 1.36477,-0.9712 1.52478,-1.79518 0.16639,-0.82239 -0.10884,-1.66879 -0.7232,-2.23999 l -6.04155,-5.63675 c 0.0737,-0.68 0.1408,-1.36479 0.2,-2.04798 l 7.03034,-4.35196 c 0.712,-0.4384 1.14559,-1.21759 1.14559,-2.05598 0,-0.83841 -0.43199,-1.61758 -1.14398,-2.05759 z m -47.054,58.3211 c -2.68478,-0.57919 -4.39197,-3.22557 -3.81598,-5.91835 0.5744,-2.68958 3.21919,-4.40157 5.90236,-3.82236 2.68478,0.5744 4.39516,3.22556 3.81917,5.91354 -0.57601,2.68797 -3.22237,4.40157 -5.90555,3.82717 z M 312.885,426.24226 c -2.44958,-0.5248 -4.85916,1.03359 -5.38395,3.48797 l -2.49598,11.6479 c -7.70233,3.49596 -16.25586,5.43835 -25.26378,5.43835 -9.21432,0 -17.95345,-2.03839 -25.79338,-5.68315 l -2.49438,-11.6479 c -0.5248,-2.45118 -2.93438,-4.01276 -5.38235,-3.48637 l -10.28312,2.20799 c -1.90879,-1.96479 -3.68476,-4.05758 -5.31675,-6.26715 h 50.03476 c 0.5664,0 0.94399,-0.10245 0.94399,-0.61761 v -17.69904 c 0,-0.51518 -0.37759,-0.6176 -0.94399,-0.6176 h -14.63346 v -11.21909 h 15.82706 c 1.44479,0 7.72473,0.4128 9.73271,8.43993 0.62879,2.46878 2.00959,10.4991 2.95358,13.07029 0.94079,2.88317 4.77117,8.64312 8.85273,8.64312 h 24.93259 c 0.28321,0 0.5856,-0.032 0.90399,-0.0896 -1.72959,2.35038 -3.62718,4.57436 -5.67035,6.65274 z m -69.20261,15.91346 c -2.68477,0.5792 -5.32795,-1.13278 -5.90555,-3.82237 -0.57439,-2.69436 1.1328,-5.33915 3.81757,-5.91833 2.68478,-0.57441 5.32955,1.13757 5.90555,3.82716 0.5744,2.68797 -1.13439,5.33755 -3.81757,5.91354 z m -18.98063,-76.96734 c 1.11359,2.51358 -0.0191,5.45916 -2.52958,6.57114 -2.51039,1.11519 -5.44797,-0.0191 -6.56155,-2.53438 -1.11359,-2.51517 0.0192,-5.45594 2.52958,-6.57113 2.51198,-1.1136 5.44795,0.0191 6.56155,2.53437 z m -5.83357,13.82868 10.71193,-4.75995 c 2.28798,-1.016 3.32156,-3.69758 2.30558,-5.99035 l -2.20638,-4.98877 h 8.67673 v 39.11008 h -17.50546 c -1.5184,-5.33756 -2.33279,-10.97111 -2.33279,-16.79345 0,-2.22239 0.12001,-4.41917 0.35039,-6.57756 z m 47.00762,-3.79836 v -11.52791 h 20.66222 c 1.06719,0 7.53593,1.23359 7.53593,6.07036 0,4.01596 -4.96155,5.45595 -9.04152,5.45595 h -19.15663 z m 75.09055,10.37592 c 0,1.52958 -0.056,3.04316 -0.16799,4.54555 h -6.28154 c -0.62881,0 -0.8816,0.41279 -0.8816,1.02879 v 2.88477 c 0,6.79034 -3.82876,8.26714 -7.18394,8.64313 -3.19517,0.36 -6.73754,-1.33758 -7.17434,-3.29277 -1.88478,-10.60152 -5.02557,-12.86548 -9.98551,-16.77745 6.15515,-3.90876 12.55989,-9.67512 12.55989,-17.39345 0,-8.33433 -5.71356,-13.5839 -9.60792,-16.15827 -5.46395,-3.60157 -11.5135,-4.32316 -13.14549,-4.32316 h -64.96425 c 8.80953,-9.83193 20.74863,-16.79666 34.25251,-19.33103 l 7.65753,8.03353 c 1.73119,1.81278 4.59837,1.87998 6.40956,0.14719 l 8.56791,-8.19512 c 17.95346,3.34237 33.15333,14.51826 41.91326,29.85094 l -5.86556,13.24788 c -1.01279,2.29278 0.0209,4.97437 2.30719,5.99035 l 11.29269,5.01597 c 0.19522,2.00477 0.2976,4.03036 0.2976,6.08315 z m -64.91945,-67.00744 c 1.98399,-1.90078 5.13116,-1.82558 7.03035,0.1616 1.89598,1.99198 1.82399,5.14235 -0.1648,7.04154 -1.98398,1.90078 -5.13116,1.82718 -7.03034,-0.16321 -1.89439,-1.98877 -1.82237,-5.13914 0.16479,-7.03993 z m 58.20752,46.84279 c 1.11199,-2.51356 4.04956,-3.64796 6.55994,-2.53278 2.51039,1.1136 3.64317,4.05757 2.52958,6.57115 -1.11199,2.51518 -4.04957,3.64957 -6.56155,2.53439 -2.50716,-1.11359 -3.63998,-4.05597 -2.52797,-6.57276 z" /></g><g
   inkscape:groupmode="layer"
   id="layer2"
   inkscape:label="Layer 2"
   transform="translate(-170.29675,-285.94541)"><g
     id="g8"
     transform="translate(148.09059,6.6969207)">
	<path
   d="m 91.891,370.194 h -8.747 c -0.32,1.922 -0.538,3.884 -0.637,5.896 h 10.396 5.215 75.275 6.871 c -0.1,-2.012 -0.318,-3.974 -0.641,-5.896"
   id="path4"
   inkscape:connector-curvature="0"
   style="fill:#2c2255" />
	<path
   d="m 82.507,381.565 c 0.099,2.013 0.316,3.975 0.637,5.896 h 9.094 6.893 73.648 6.846 c 0.322,-1.921 0.542,-3.883 0.642,-5.896"
   id="path6"
   inkscape:connector-curvature="0"
   style="fill:#2c2255" />
</g><g
     id="g14"
     transform="matrix(1.6803233,0,0,1.7387871,57.701151,-272.75757)">
	<path
   d="m 79.6,378.829 c 0,-25.824 19.395,-47.281 44.626,-51.055 -0.626,-0.023 -1.255,-0.048 -1.887,-0.048 -28.314,0 -51.269,22.88 -51.269,51.103 0,28.224 22.954,51.103 51.269,51.103 0.634,0 1.263,-0.024 1.891,-0.047 C 98.995,426.111 79.6,404.654 79.6,378.829 Z"
   id="path12"
   inkscape:connector-curvature="0"
   style="fill:#f7941e" />
</g><g
     id="g61"
     transform="translate(148.09059,6.6969207)">
	<path
   d="m 93.188,381.565 h 4.884 66.706 8.763 6.657 c 0.046,-0.871 0.072,-1.748 0.072,-2.631 0,-0.955 -0.035,-1.902 -0.089,-2.845 H 173.54 164.777 98.071 92.842 82.507 c -0.054,0.942 -0.089,1.89 -0.089,2.845 0,0.883 0.026,1.76 0.072,2.631 z"
   id="path55"
   inkscape:connector-curvature="0"
   style="fill:#ffffff" />
	<path
   d="M 100.928,364.718 H 84.376 c -0.544,1.783 -0.895,3.612 -1.232,5.476 h 8.525 7.259 64.679 9.16 6.547 c -0.338,-1.863 -0.773,-3.692 -1.316,-5.476"
   id="path57"
   inkscape:connector-curvature="0"
   style="fill:#ffffff" />
	<path
   d="m 173.026,387.46 h -9.16 -64.678 -6.912 -9.133 c 0.328,1.863 0.701,3.691 1.236,5.476 h 16.807 60.682 9.962 6.488 c 0.534,-1.784 0.965,-3.612 1.294,-5.476 z"
   id="path59"
   inkscape:connector-curvature="0"
   style="fill:#ffffff" />
</g></g></svg>